<svg xmlns="http://www.w3.org/2000/svg" version="1.1" xmlns:xlink="http://www.w3.org/1999/xlink" xmlns:svgjs="http://svgjs.com/svgjs" width="512" height="512" x="0" y="0" viewBox="0 0 512 512" style="enable-background:new 0 0 512 512" xml:space="preserve" class=""><g><path d="m232 254.025v-230.025a24 24 0 0 1 48 0v230.025a24 24 0 1 1 -48 0zm256 209.975h-464a24 24 0 0 0 0 48h464a24 24 0 0 0 0-48zm-248.971-87.457a24 24 0 0 0 33.942 0l117.429-117.427a24 24 0 0 0 -33.941-33.941l-100.459 100.456-100.456-100.456a24 24 0 1 0 -33.944 33.941z" fill="#01b09c" data-original="#000000"></path></g></svg>