<?xml version="1.0" encoding="iso-8859-1"?>
<!-- Generator: Adobe Illustrator 19.0.0, SVG Export Plug-In . SVG Version: 6.00 Build 0)  -->
<svg version="1.1" id="Capa_1" xmlns="http://www.w3.org/2000/svg" xmlns:xlink="http://www.w3.org/1999/xlink" x="0px" y="0px"
	 viewBox="0 0 434.941 434.941" style="enable-background:new 0 0 434.941 434.941;" xml:space="preserve">
<g>
	<path style="fill:#00CEB4;" d="M293.096,258.353h0.522c-16.718,24.555-40.751,42.841-68.963,52.767l0,0l-5.225-52.245
		c0-13.584-1.567-26.645-12.539-35.004h0.522c6.269-14.629,20.898-23.51,36.571-23.51h8.882
		c21.943-0.522,39.706,17.241,40.229,39.184c0,0.522,0,0.522,0,1.045L293.096,258.353L293.096,258.353z"/>
	<path style="fill:#00CEB4;" d="M268.019,137.145c5.224,5.224,7.837,12.016,7.837,19.331c0,7.314-2.612,13.584-7.837,18.808
		c-5.224,4.702-12.016,7.837-19.331,7.837c-14.629,0.522-26.645-11.494-27.167-26.122v-0.522c0-7.314,2.612-14.106,7.837-19.331
		C240.329,126.696,257.047,126.696,268.019,137.145z"/>
</g>
<g>
	<path style="fill:#00EFD1;" d="M225.178,311.121L225.178,311.121c-14.629,5.224-29.78,7.837-45.453,7.837
		c-15.151,0-30.302-2.612-44.408-7.314v-52.767c0-13.584,6.269-26.645,17.241-35.004c6.792-5.224,14.629-7.837,22.988-7.837h8.882
		c8.359,0,16.196,2.612,22.465,7.837c10.971,8.359,17.763,21.42,17.763,35.004L225.178,311.121z"/>
	<path style="fill:#00EFD1;" d="M199.056,152.819c5.224,5.224,7.837,12.016,7.837,19.331c0,7.314-2.612,13.584-7.837,18.808
		c-4.702,5.224-12.016,8.359-19.331,8.359c-14.629-0.522-26.645-12.539-26.645-27.167c0-7.314,2.612-14.106,7.837-19.331
		s11.494-7.837,18.808-7.837S193.831,147.594,199.056,152.819z"/>
</g>
<g>
	<path style="fill:#00CEB4;" d="M152.558,224.394c-10.971,8.359-17.241,21.42-17.241,35.004v53.29
		c-27.69-9.404-51.722-26.645-68.963-50.155l0,0v-21.42c-0.522-21.943,17.241-39.706,39.184-40.229c0.522,0,0.522,0,1.045,0h9.404
		c15.673,0,29.257,8.882,36.049,22.988L152.558,224.394z"/>
	<path style="fill:#00CEB4;" d="M130.615,137.145c5.224,5.224,7.837,12.016,7.837,19.331c0,7.314-2.612,13.584-7.837,18.808
		c-5.224,4.702-12.016,7.837-19.331,7.837c-14.629,0.522-26.645-11.494-27.167-26.122v-0.522c0-7.314,2.612-14.106,7.837-19.331
		C102.925,126.696,119.643,126.696,130.615,137.145z"/>
</g>
<rect x="309.212" y="296.471" transform="matrix(0.7071 -0.7071 0.7071 0.7071 -131.8952 319.4481)" style="fill:#083863;" width="20.898" height="44.93"/>
<path style="fill:#00ACEA;" d="M426.321,384.786c11.494,11.494,11.494,29.78,0,41.273l0,0c-11.494,11.494-29.78,11.494-41.273,0
	l-73.143-72.62l20.898-20.898l20.898-20.375L426.321,384.786z"/>
<path style="fill:#D4E1F4;" d="M179.203,0.264C80.46-0.259,0.525,79.676,0.003,178.419s79.412,178.678,178.155,179.2
	c98.743,0.522,178.678-79.412,179.2-178.155c0-0.522,0-0.522,0-1.045C356.835,80.199,277.423,0.786,179.203,0.264z M224.656,310.076
	c-14.629,5.224-29.78,7.837-45.453,7.837c-15.151,0-30.302-2.612-44.408-7.314c-27.167-9.404-51.2-26.645-68.441-50.155
	c-44.931-62.171-30.824-149.42,31.869-193.829c62.171-44.931,149.42-30.824,193.829,31.869c16.718,23.51,26.122,51.2,26.122,79.935
	c0,28.212-8.359,55.902-24.555,78.89C276.901,281.864,252.868,300.149,224.656,310.076z"/>
<g>
</g>
<g>
</g>
<g>
</g>
<g>
</g>
<g>
</g>
<g>
</g>
<g>
</g>
<g>
</g>
<g>
</g>
<g>
</g>
<g>
</g>
<g>
</g>
<g>
</g>
<g>
</g>
<g>
</g>
</svg>
