<svg id="Layer_1" data-name="Layer 1" xmlns="http://www.w3.org/2000/svg" viewBox="0 0 1217.01 302.19"><defs><style>.cls-1{fill:#008e8e;}.cls-2,.cls-6{fill:#f2cb05;}.cls-2{opacity:0.63;}.cls-3{fill:#005167;}.cls-4{fill:#8fcdcd;}.cls-4,.cls-5,.cls-8,.cls-9{isolation:isolate;}.cls-5{fill:#61b9b9;}.cls-7{fill:#ffb62f;}.cls-8,.cls-9{fill:#005c5c;}.cls-8{opacity:0.27;}.cls-9{opacity:0.18;}</style></defs><path class="cls-1" d="M463.63,420.1v120a120,120,0,0,1-120,120h0v-240a60,60,0,0,1,60-60h0a60,60,0,0,1,60,60Z" transform="translate(-343.63 -357.91)"/><path class="cls-2" d="M385.44,362.75a60,60,0,0,0-41.81,57.19v7.79a60,60,0,0,0,59.5,52.37h60.5V419.94A60,60,0,0,0,407.8,360.1h-4.67A60.06,60.06,0,0,0,385.44,362.75Z" transform="translate(-343.63 -357.91)"/><circle class="cls-3" cx="60" cy="62" r="50"/><path class="cls-4" d="M560.51,502.19h0a13.27,13.27,0,0,1,18.14-4.85L590.14,504A13.28,13.28,0,0,1,595,522.11h0A13.27,13.27,0,0,1,576.86,527l-11.49-6.63A13.28,13.28,0,0,1,560.51,502.19Z" transform="translate(-343.63 -357.91)"/><path class="cls-5" d="M526,543.4h0a13.28,13.28,0,0,1,18.78,0l9.38,9.38a13.28,13.28,0,0,1,0,18.78h0a13.29,13.29,0,0,1-18.78,0L526,562.18A13.28,13.28,0,0,1,526,543.4Z" transform="translate(-343.63 -357.91)"/><path class="cls-1" d="M503.79,612.19h0a13.28,13.28,0,0,1-18.15-4.83v0L479,595.83a13.28,13.28,0,0,1,23-13.28l6.64,11.5A13.28,13.28,0,0,1,503.79,612.19Z" transform="translate(-343.63 -357.91)"/><path class="cls-6" d="M407.81,360.1a60,60,0,0,1,55.82,59.84V480.1h59.5a120,120,0,0,0,120-120Z" transform="translate(-343.63 -357.91)"/><polygon class="cls-1" points="492.89 50.16 471.39 66 471.39 233 514.39 233 514.39 66 492.89 50.16"/><polygon class="cls-7" points="514.39 59.28 514.39 43.58 492.89 27.35 471.39 43.58 471.39 59.35 471.49 59.35 492.99 43.12 514.39 59.28"/><polygon class="cls-6" points="514.39 36.93 514.39 21 492.89 4.54 471.39 21 471.39 37 471.49 37 492.99 20.54 514.39 36.93"/><path class="cls-1" d="M1310.21,590.07l-36.84-40.82a44.22,44.22,0,0,1-30.16-41.18,47.23,47.23,0,0,1,6-25.07A43.83,43.83,0,0,1,1264,467.27c.26-.17.54-.33.8-.49l.49-.3a38.58,38.58,0,0,1,16-5.41c17.55-1.85,29.69,8.87,32,11a43.28,43.28,0,0,1,13,24l39.7,37.71a90.72,90.72,0,0,0,4.3-27.71c0-48.6-38-88-85-88s-85,39.4-85,88,38.06,88,85,88a92.63,92.63,0,0,0,18.25-2C1306.37,591.33,1308.72,590.57,1310.21,590.07Z" transform="translate(-343.63 -357.91)"/><path class="cls-1" d="M1326.21,496.07a46,46,0,0,1,1,10c0,3.71-.72,21.32-15,34a44,44,0,0,1-27,11c-1.61,0-3.25-.13-3.25-.13a39.84,39.84,0,0,1-8.59-1.69l36.84,40.82a89.55,89.55,0,0,0,35.94-22.66,88.65,88.65,0,0,0,19.76-33.63Z" transform="translate(-343.63 -357.91)"/><path class="cls-8" d="M1324.21,488.07a49.78,49.78,0,0,1,3,18c-.08,4.14-.57,18-11,30a47.45,47.45,0,0,1-17,12,36.35,36.35,0,0,1-14,3c-.28,0-1.61,0-3.25-.13a43.85,43.85,0,0,1-17.75-5.87l38,47a84.79,84.79,0,0,0,65-64Z" transform="translate(-343.63 -357.91)"/><path class="cls-9" d="M1327.21,504.07a47.86,47.86,0,0,1-1,12,46.51,46.51,0,0,1-6,15c-.81,1.28-11.47,17.53-31,20a39.84,39.84,0,0,1-10,0l34,38a89.51,89.51,0,0,0,34-23,88.6,88.6,0,0,0,17-27Z" transform="translate(-343.63 -357.91)"/><path class="cls-6" d="M1242.21,506.91a42,42,0,0,0,1,10,40.43,40.43,0,0,0,5,12,49.16,49.16,0,0,0,14,15,42.91,42.91,0,0,0,7,4,35.13,35.13,0,0,0,20,3,43.42,43.42,0,0,0,19-7,44.07,44.07,0,0,0,16-20,47.75,47.75,0,0,0,2-30,46.5,46.5,0,0,0-9-18,43.62,43.62,0,0,0-22-14,41.76,41.76,0,0,0-24,1c-15.4,5.44-22.16,18.35-24,22A48.92,48.92,0,0,0,1242.21,506.91Z" transform="translate(-343.63 -357.91)"/><path class="cls-1" d="M688.63,357.91h42v67h65v42h-65v52a33.45,33.45,0,0,0,27,30h38v43l-41-1a74.36,74.36,0,0,1-66-69v-55h-21q-.5-21-1-42h22Z" transform="translate(-343.63 -357.91)"/><path class="cls-1" d="M1001.45,488.91l31-32c-2.19-3.26-27.11-39.08-70-39-30.9.06-51.37,18.71-57,24-4.27,4-27,26.14-28,62-.22,7.46,0,32.66,18,56,3.39,4.4,26.78,33.67,67,34,43.1.35,67.73-32.82,70-36l-31-31c-1.24,2.42-9.84,18.48-29,23-13.88,3.27-29.48-.42-40-11-11.28-11.35-11.83-25.71-12-30a48.14,48.14,0,0,1,9-30c2-2.68,14.14-19.27,34-19C979.78,460.14,995,471.69,1001.45,488.91Z" transform="translate(-343.63 -357.91)"/><path class="cls-1" d="M1073.84,357.91h42v67h65v42h-65v52a33.46,33.46,0,0,0,27,30h38v43l-41-1a74.36,74.36,0,0,1-66-69v-55h-21q-.49-21-1-42h22Z" transform="translate(-343.63 -357.91)"/><path class="cls-1" d="M1560.63,505.91c-.08-8.81-.36-39.73-25-64-4.49-4.42-26.23-24.82-60-24-33.56.82-54.24,22-58,26l-17-20h-11v231h43v-75a80.75,80.75,0,0,0,43,15c37,1.57,60.64-24.22,64-28C1560.54,543.35,1560.72,515.7,1560.63,505.91Zm-45.65,18a43.94,43.94,0,0,1-16,20,43.32,43.32,0,0,1-19,7,38,38,0,0,1-10,0,38.46,38.46,0,0,1-10-3,44.09,44.09,0,0,1-7-4,49.4,49.4,0,0,1-14-15,40.54,40.54,0,0,1-5-12,43.08,43.08,0,0,1-1-10,49.19,49.19,0,0,1,5-22c1.84-3.65,8.61-16.56,24-22a41.68,41.68,0,0,1,24-1,43.58,43.58,0,0,1,22,14,46.5,46.5,0,0,1,9,18A47.75,47.75,0,0,1,1515,523.91Z" transform="translate(-343.63 -357.91)"/></svg>